<?xml version="1.0" standalone="no"?>
<!DOCTYPE svg PUBLIC "-//W3C//DTD SVG 20010904//EN"
 "http://www.w3.org/TR/2001/REC-SVG-20010904/DTD/svg10.dtd">
<svg version="1.0" xmlns="http://www.w3.org/2000/svg"
 width="168.000000pt" height="81.000000pt" viewBox="0 0 168.000000 81.000000"
 preserveAspectRatio="xMidYMid meet">

<g transform="translate(0.000000,81.000000) scale(0.100000,-0.100000)"
fill="#000000" stroke="none">
<path d="M796 803 c-4 -4 -88 -10 -186 -13 -116 -3 -183 -9 -191 -17 -8 -8 -8
-20 -2 -39 9 -27 11 -27 77 -25 l69 2 -8 -28 c-24 -95 -86 -414 -91 -473 l-7
-70 35 0 c20 0 40 6 45 13 6 6 13 44 17 82 6 76 59 376 76 438 7 23 17 37 27
37 9 0 44 5 79 11 61 10 62 11 68 47 6 38 4 47 -8 35z"/>
<path d="M198 740 c-97 -52 -178 -218 -194 -396 -5 -60 -2 -75 18 -114 26 -50
73 -86 126 -96 68 -13 156 55 239 184 43 66 49 82 31 82 -7 0 -33 -27 -57 -60
-52 -71 -126 -129 -175 -137 -28 -4 -39 -1 -62 22 -26 26 -27 30 -21 108 12
187 132 421 195 380 26 -16 23 -100 -6 -140 -27 -38 -27 -49 -4 -62 33 -17 65
9 85 69 23 68 16 113 -23 152 -35 34 -95 38 -152 8z"/>
<path d="M750 564 c-49 -21 -70 -42 -96 -99 -33 -70 -33 -163 -1 -201 32 -36
78 -37 115 -1 l27 26 22 -25 c31 -34 74 -32 112 7 17 17 31 36 31 42 0 7 9 -7
20 -30 24 -54 46 -56 54 -5 34 190 88 298 132 261 19 -16 18 -52 -6 -159 -20
-90 -18 -115 9 -137 36 -28 83 -7 120 52 10 16 13 17 18 6 13 -31 56 -61 89
-61 37 0 75 37 105 105 23 49 24 33 3 -48 -14 -58 -19 -65 -62 -92 -80 -48
-122 -94 -122 -132 0 -38 29 -73 60 -73 57 0 120 69 159 176 14 35 36 68 69
99 50 46 78 93 69 117 -2 7 -11 -2 -20 -22 -18 -40 -73 -107 -81 -99 -3 3 4
47 14 99 11 52 20 114 20 138 0 35 -3 42 -19 42 -11 0 -22 -4 -26 -9 -3 -5
-17 2 -31 16 -21 21 -32 25 -65 20 -22 -3 -55 -17 -74 -31 -34 -26 -95 -134
-95 -168 0 -39 -51 -118 -77 -118 -18 0 -17 24 8 125 25 109 23 152 -12 178
-34 24 -77 16 -114 -21 l-27 -27 3 30 c4 27 1 30 -28 33 -39 4 -45 -6 -67
-121 -17 -83 -73 -187 -101 -187 -22 0 -19 40 14 163 30 110 29 115 -12 108
-5 -1 -20 8 -34 19 -30 24 -55 25 -103 4z m90 -28 c21 -27 -42 -221 -84 -255
-13 -11 -19 -11 -32 0 -39 32 10 224 65 254 33 18 36 18 51 1z m664 8 c36 -14
38 -41 7 -118 -40 -99 -76 -156 -100 -156 -57 0 -35 170 31 246 32 36 36 38
62 28z m-30 -371 c-13 -54 -47 -124 -65 -134 -27 -14 -59 6 -59 36 0 30 42 80
89 105 20 10 37 19 39 20 1 0 -1 -12 -4 -27z"/>
</g>
</svg>
